<svg width="22" height="59" viewBox="0 0 22 59" fill="none" xmlns="http://www.w3.org/2000/svg">
    <path d="M21.2281 0.000244141C20.5292 1.72277 19.4779 3.28233 18.1407 4.58015C16.8035 5.87797 15.2095 6.88577 13.4599 7.53971C13.4668 3.9756 17.413 0.096201 21.2281 0.000244141ZM13.315 52.6668C10.6934 49.4386 7.15423 47.4577 4.49813 48.6778C6.6851 52.989 11.1211 54.5517 13.315 52.6668ZM9.17562 46.3063C7.3198 42.7216 4.25666 40.1376 1.41429 40.823C2.70439 45.3878 6.6644 47.7182 9.19632 46.3063H9.17562ZM6.51262 39.3974C5.42259 35.566 2.91826 32.4336 0 32.5502C0.344948 37.2726 3.74614 40.2747 6.51262 39.3974ZM5.25701 32.1595C4.93966 28.2184 3.08384 24.6749 0.20007 24.2019C-0.372544 28.9038 2.37324 32.4885 5.25701 32.1595ZM5.42949 24.8394C5.88482 20.9051 4.73959 17.0257 2.0283 16.0182C0.538119 20.5624 2.54572 24.5995 5.42949 24.8394ZM7.03694 17.6632C8.27876 13.866 7.9821 9.79469 5.51917 8.26624C3.07694 12.4815 4.25666 16.8681 7.03694 17.6632ZM10.0725 10.8639C12.0663 7.33409 12.7079 3.2148 10.5899 1.21341C7.25081 4.96258 7.50608 9.54109 10.0725 10.8639ZM11.811 11.8509C14.405 13.2217 17.7372 11.9537 19.9932 9.45884C17.9373 7.46431 13.8324 8.33478 11.811 11.8509ZM8.96866 18.2869C11.7765 19.1025 14.7845 17.2656 16.4264 14.4486C13.929 12.9201 10.1898 14.5034 8.96866 18.2869ZM7.45088 25.0792C10.3622 25.3328 12.9701 22.9613 13.9773 19.9318C11.2246 18.9174 7.89932 21.1587 7.41639 25.0792H7.45088ZM7.28531 32.0156C10.1898 31.7003 12.2733 28.8695 12.6803 25.7235C9.78273 25.2575 6.96106 28.1019 7.25081 32.0156H7.28531ZM8.47193 38.8696C11.2315 37.9923 12.7493 34.7983 12.5423 31.6317C9.61026 31.7277 7.38189 35.0313 8.43744 38.8628L8.47193 38.8696ZM11.0176 45.4152C13.5772 44.0444 14.3774 40.542 13.5496 37.4645C10.7003 38.1225 9.15493 41.81 10.9832 45.4084L11.0176 45.4152ZM14.8811 51.4057C17.0956 49.514 17.1301 45.9224 15.6882 43.0163C13.0528 44.2363 12.2871 48.1911 14.8811 51.4057ZM20.9108 57.9033C5.02935 46.1897 2.0283 24.4555 12.4664 8.91052C7.09707 16.6301 4.91581 26.1031 6.37291 35.3742C7.83 44.6453 12.8142 53.0067 20.2968 58.7327C20.6348 58.9931 21.0556 59.0205 21.2281 58.7944C21.4006 58.5682 21.2281 58.1912 20.9246 57.9376L20.9108 57.9033Z"
          fill="#14141E"/>
</svg>
